name D:\school\WTK\thesis\model\3dpredictsim\Results\MidTarsalJoint\Fal_s1_bCst_PF_Natali2010_ls150_MT_k300_MTP_T10_ig24.mot
datacolumns 128
datarows 4
range 0.56721002 0.60124263
endheader
time	pelvis_tilt	pelvis_list	pelvis_rotation	pelvis_tx	pelvis_ty	pelvis_tz	hip_flexion_l	hip_adduction_l	hip_rotation_l	hip_flexion_r	hip_adduction_r	hip_rotation_r	knee_angle_l	knee_angle_r	ankle_angle_l	ankle_angle_r	subtalar_angle_l	subtalar_angle_r	mtj_angle_l	mtj_angle_r	mtp_angle_l	mtp_angle_r	lumbar_extension	lumbar_bending	lumbar_rotation	arm_flex_l	arm_add_l	arm_rot_l	arm_flex_r	arm_add_r	arm_rot_r	elbow_flex_l	elbow_flex_r	pro_sup_l	pro_sup_r	glut_med1_l/activation	glut_med2_l/activation	glut_med3_l/activation	glut_min1_l/activation	glut_min2_l/activation	glut_min3_l/activation	semimem_l/activation	semiten_l/activation	bifemlh_l/activation	bifemsh_l/activation	sar_l/activation	add_long_l/activation	add_brev_l/activation	add_mag1_l/activation	add_mag2_l/activation	add_mag3_l/activation	tfl_l/activation	pect_l/activation	grac_l/activation	glut_max1_l/activation	glut_max2_l/activation	glut_max3_l/activation	iliacus_l/activation	psoas_l/activation	quad_fem_l/activation	gem_l/activation	peri_l/activation	rect_fem_l/activation	vas_med_l/activation	vas_int_l/activation	vas_lat_l/activation	med_gas_l/activation	lat_gas_l/activation	soleus_l/activation	tib_post_l/activation	flex_dig_l/activation	flex_hal_l/activation	tib_ant_l/activation	per_brev_l/activation	per_long_l/activation	per_tert_l/activation	ext_dig_l/activation	ext_hal_l/activation	ercspn_l/activation	intobl_l/activation	extobl_l/activation	glut_med1_r/activation	glut_med2_r/activation	glut_med3_r/activation	glut_min1_r/activation	glut_min2_r/activation	glut_min3_r/activation	semimem_r/activation	semiten_r/activation	bifemlh_r/activation	bifemsh_r/activation	sar_r/activation	add_long_r/activation	add_brev_r/activation	add_mag1_r/activation	add_mag2_r/activation	add_mag3_r/activation	tfl_r/activation	pect_r/activation	grac_r/activation	glut_max1_r/activation	glut_max2_r/activation	glut_max3_r/activation	iliacus_r/activation	psoas_r/activation	quad_fem_r/activation	gem_r/activation	peri_r/activation	rect_fem_r/activation	vas_med_r/activation	vas_int_r/activation	vas_lat_r/activation	med_gas_r/activation	lat_gas_r/activation	soleus_r/activation	tib_post_r/activation	flex_dig_r/activation	flex_hal_r/activation	tib_ant_r/activation	per_brev_r/activation	per_long_r/activation	per_tert_r/activation	ext_dig_r/activation	ext_hal_r/activation	ercspn_r/activation	intobl_r/activation	extobl_r/activation	
          0.56721002	         -2.92891492	          2.05161721	         -5.20310523	          0.70901253	          0.91895656	          0.00212698	         29.63969563	          3.19375196	         -2.40446918	        -16.81575990	         -0.74786814	          6.51259562	        -10.85137989	         -6.84544490	          5.90223949	         -1.45394487	         -5.73978313	          6.39200091	         -0.01911600	          5.39780173	         -0.77282399	          9.86942913	         -1.83318829	         -0.04903296	          2.02794450	         -4.86226089	        -13.45700195	          6.51298848	          4.64265259	        -13.44970729	         14.90262632	         17.28256742	         33.50157327	         86.51662706	         86.51662706	          0.09583279	          0.05000015	          0.05945355	          0.05000009	          0.05000012	          0.05000063	          0.23889470	          0.05945395	          0.08546822	          0.05945147	          0.05000117	          0.08353061	          0.18141360	          0.19907942	          0.14539358	          0.09878345	          0.05945373	          0.05000879	          0.11899950	          0.05945466	          0.05945583	          0.10776087	          0.05000010	          0.05000015	          0.26414132	          0.05012425	          0.05000050	          0.05000007	          0.05000039	          0.05000041	          0.05000031	          0.05945346	          0.05945344	          0.05945347	          0.05183927	          0.05000124	          0.05000411	          0.44821426	          0.26940967	          0.20055319	          0.08388612	          0.43916830	          0.06012997	          0.06060211	          0.14442642	          0.11965304	          0.31560505	          0.11683980	          0.08406108	          0.31322339	          0.21405354	          0.11886959	          0.05000071	          0.05000018	          0.05000015	          0.06153315	          0.11886100	          0.05000007	          0.05000008	          0.05000012	          0.05000037	          0.05000028	          0.34279090	          0.05000033	          0.05000034	          0.05444166	          0.05002694	          0.05000110	          0.44510958	          0.66742527	          0.05000042	          0.05000864	          0.07069478	          0.26444483	          0.05000216	          0.05000141	          0.05000113	          0.32400992	          0.43942062	          0.35346383	          0.27916384	          0.27814834	          0.34648424	          0.05000005	          0.05000250	          0.12872706	          0.05000025	          0.05000007	          0.05000027	          0.05000001	          0.05000001	          0.05000001	
          0.57855423	         -2.93000117	          2.14331895	         -5.51377290	          0.72580172	          0.91802277	          0.00194254	         29.10187824	          3.53686418	         -2.19728218	        -16.82641862	         -1.05456768	          6.29609203	        -10.91217989	         -8.51551329	          5.23357122	         -1.88514749	         -6.10030270	          7.29706505	         -0.04983480	          4.68967034	         -0.77472195	         11.32895572	         -1.65036491	         -0.23962774	          2.09704486	         -5.71386769	        -13.45166794	          6.32683564	          4.45765047	        -13.45289607	         15.33555720	         16.82186278	         34.65477800	         86.51662706	         86.51662706	          0.08059482	          0.05945051	          0.05000014	          0.05945532	          0.05945367	          0.05000118	          0.20090902	          0.05000045	          0.07187825	          0.05000024	          0.05000045	          0.11885391	          0.24092195	          0.22431570	          0.15958155	          0.09850262	          0.05000037	          0.07061678	          0.10007827	          0.05000115	          0.05000202	          0.11146828	          0.06722702	          0.05789346	          0.51337935	          0.17437912	          0.12798188	          0.07980683	          0.17030768	          0.16843691	          0.14699205	          0.05000001	          0.05000003	          0.05000000	          0.05000005	          0.05000089	          0.05000054	          0.51026187	          0.27417604	          0.16866464	          0.18755528	          0.46969604	          0.05945433	          0.05096598	          0.12146168	          0.10062743	          0.26542200	          0.09826153	          0.07069484	          0.26341894	          0.18001769	          0.09996858	          0.05000290	          0.05000052	          0.05000051	          0.05174907	          0.09996149	          0.08242904	          0.06888687	          0.05001238	          0.05000925	          0.05001221	          0.28828505	          0.05451114	          0.05000262	          0.05000192	          0.05000117	          0.05000183	          0.37433429	          0.58169632	          0.05000032	          0.05000245	          0.05945394	          0.22239642	          0.05000373	          0.08054274	          0.12207064	          0.27249022	          0.36955002	          0.32981508	          0.26778528	          0.24263124	          0.32345209	          0.05000008	          0.05000064	          0.12658553	          0.05000035	          0.05000010	          0.05000040	          0.05000003	          0.07170667	          0.05000065	
          0.58989843	         -2.92742210	          2.23517483	         -5.79699716	          0.74294701	          0.91714581	          0.00176813	         28.45397918	          3.82824927	         -1.93202013	        -16.78163663	         -1.36264121	          6.07138109	        -11.41481057	        -10.27983387	          4.53577415	         -2.42356063	         -6.46134040	          8.17719310	         -0.20653539	          3.82278486	         -0.77750504	         12.88123252	         -1.44286989	         -0.44095930	          2.15616014	         -6.61064212	        -13.44993680	          6.17435170	          4.19440345	        -13.45389549	         15.70625675	         16.43102538	         35.77508865	         86.51662706	         86.51662706	          0.18551100	          0.05000008	          0.13974967	          0.05000158	          0.05000023	          0.05000025	          0.18425186	          0.08265096	          0.08005450	          0.05000026	          0.05644265	          0.09995546	          0.20261402	          0.18864838	          0.13420737	          0.10671741	          0.05000045	          0.05947626	          0.10410587	          0.05000049	          0.07672676	          0.09374433	          0.05945348	          0.05703435	          0.43174870	          0.14665176	          0.10763221	          0.06711702	          0.14322767	          0.14165437	          0.12361938	          0.05673908	          0.06454812	          0.05520293	          0.05096675	          0.05000093	          0.05000121	          0.42912693	          0.25376599	          0.16837788	          0.15773278	          0.54279677	          0.05000071	          0.05000001	          0.12211263	          0.08462701	          0.31858516	          0.08263732	          0.05945392	          0.22153377	          0.15139376	          0.08407296	          0.05000237	          0.05000103	          0.05000083	          0.05000016	          0.08406717	          0.12342331	          0.06616827	          0.05945532	          0.05945518	          0.05945489	          0.24244614	          0.06692375	          0.05030633	          0.05001770	          0.05002688	          0.05945115	          0.31481317	          0.57339480	          0.05597765	          0.05000141	          0.05000044	          0.18703395	          0.13678449	          0.10797391	          0.10266233	          0.22916248	          0.31078916	          0.27737252	          0.23200527	          0.20405177	          0.27202168	          0.05000001	          0.05000177	          0.15773383	          0.05000009	          0.05000002	          0.05000011	          0.05000011	          0.06030485	          0.05945365	
          0.60124263	         -2.92259831	          2.32730329	         -6.04640270	          0.76031203	          0.91634211	          0.00159292	         27.69181520	          4.06932209	         -1.65824542	        -16.66971563	         -1.66864608	          5.84353476	        -11.91609787	        -12.13717176	          3.87765312	         -3.10259138	         -6.83632236	          9.01171206	         -0.15870477	          2.85135086	         -0.75636199	         14.44366800	         -1.22443152	         -0.65247054	          2.20574179	         -7.51905154	        -13.45229482	          6.06667131	          3.87082399	        -13.45553962	         16.02367094	         16.09176140	         36.85773910	         86.51662706	         86.51662706	          0.26930499	          0.23614078	          0.27618600	          0.18555799	          0.18029887	          0.15435343	          0.15495461	          0.06950909	          0.06732535	          0.07906849	          0.05000225	          0.08406193	          0.17039711	          0.15865227	          0.11286789	          0.12616443	          0.05000100	          0.05001969	          0.08755552	          0.17453671	          0.14177569	          0.10571081	          0.05000022	          0.05000020	          0.36309787	          0.12333331	          0.11605857	          0.05644504	          0.12045377	          0.11913075	          0.10396332	          0.05000105	          0.05786864	          0.05000010	          0.05000014	          0.05000061	          0.05000079	          0.54921480	          0.33985337	          0.19195754	          0.41396611	          0.49397657	          0.22056135	          0.06636425	          0.11554760	          0.07117076	          0.26951553	          0.06949748	          0.05000041	          0.36609237	          0.12732125	          0.07070485	          0.05000271	          0.05000025	          0.05000021	          0.05000049	          0.07070157	          0.11277237	          0.05564719	          0.05000173	          0.05000209	          0.05000157	          0.24211879	          0.05628414	          0.05000075	          0.05000200	          0.05000110	          0.05000075	          0.27350950	          0.54643266	          0.05000014	          0.05000094	          0.05000062	          0.15729474	          0.11503670	          0.09080617	          0.14494950	          0.19272413	          0.26137164	          0.23326846	          0.19511505	          0.17160637	          0.22876859	          0.05000010	          0.08837010	          0.15266477	          0.05000055	          0.05000149	          0.05000043	          0.05685636	          0.05071598	          0.05000014	
